# xmcd
#
# Track frame offsets:
#	225
#	17122
#	28610
#	40855
#	50667
#	58785
#	70037
#	80555
#	93790
#	106500
#	118825
#	131492
#	139870
#	149960
#	164790
#	172870
#	182185
#	195645
#	209445
#	218220
#
# Disc length: 3046 seconds
#
# Revision: 2
# Processed by: cddbd v1.4PL0 Copyright (c) Steve Scherf et al.
# Submitted via: EasyCDDAExtractor 4.6.9.1
#
DISCID=2d0be314
DTITLE=Willie Nelson - Any Old Arms Won't Do
DYEAR=1900
DGENRE=Country
TTITLE0=I Let My Mind Wonder
TTITLE1=December Days
TTITLE2=I Can't Find The Time
TTITLE3=I Don't Sleep A Wink
TTITLE4=You Wouldn't Cross The Street To Say Goodbye
TTITLE5=Suffering In Silence
TTITLE6=I Feel Sorry For Him
TTITLE7=You'll Always Have Someone
TTITLE8=I Just Don't Understand
TTITLE9=Shelter Of My Arms
TTITLE10=Any Old Arms Won't Do
TTITLE11=Slow Down Old World
TTITLE12=Healing Hands Of Time
TTITLE13=And So Will You My Love
TTITLE14=Things To Remember
TTITLE15=One Step Beyond
TTITLE16=Undo The Wrong
TTITLE17=Home Is Where You're Happy
TTITLE18=Why Are You Picking On Me ?
TTITLE19=Blame It On The Time.
EXTD=
EXTT0=
EXTT1=
EXTT2=
EXTT3=
EXTT4=
EXTT5=
EXTT6=
EXTT7=
EXTT8=
EXTT9=
EXTT10=
EXTT11=
EXTT12=
EXTT13=
EXTT14=
EXTT15=
EXTT16=
EXTT17=
EXTT18=
EXTT19=
PLAYORDER=
